<svg xmlns="http://www.w3.org/2000/svg" enable-background="new 0 0 64 64" viewBox="0 0 64 64"><path d="M58.66,21.85l-21.45,0l0-6.44c0-2.94-2.39-5.34-5.34-5.34L5.34,10.06C2.4,10.05,0,12.45,0,15.39l0,16.99
		c0,2.94,2.39,5.34,5.34,5.34l0.99,0l0,3c0,0.53,0.29,1.01,0.76,1.26c0.21,0.11,0.44,0.17,0.68,0.17c0.28,0,0.56-0.08,0.8-0.24
		l6.27-4.19l11.96,0l0,6.45c0,2.94,2.39,5.33,5.33,5.33l17.04,0l6.27,4.2c0.24,0.16,0.52,0.24,0.8,0.24c0.23,0,0.46-0.06,0.68-0.17
		c0.47-0.25,0.76-0.73,0.76-1.26l0-3l0.99,0c2.95,0,5.34-2.39,5.35-5.33l0-16.98C64,24.25,61.6,21.85,58.66,21.85z M28.27,34.85
		c-0.02,0-0.03,0-0.05,0c-0.02,0-0.03,0-0.05,0l-13.78,0c-0.28,0-0.56,0.08-0.8,0.24l-4.4,2.94l0-1.75c0-0.79-0.64-1.43-1.43-1.43
		l-2.42,0c-1.36,0-2.47-1.11-2.47-2.47l0-16.99c0-1.36,1.11-2.47,2.47-2.47l26.53,0.01c1.36,0,2.47,1.11,2.47,2.47l0,16.98
		c0,1.36-1.11,2.47-2.47,2.47L28.27,34.85z M61.13,44.18c0,1.36-1.11,2.47-2.48,2.47l-2.42,0c-0.79,0-1.43,0.64-1.43,1.43l0,1.75
		l-4.4-2.95c-0.24-0.16-0.51-0.24-0.8-0.24l-17.48,0c-1.36,0-2.47-1.11-2.47-2.47l0-6.45l2.21,0c2.94,0,5.34-2.39,5.34-5.34l0-7.68
		l21.45,0c1.37,0,2.48,1.11,2.48,2.48L61.13,44.18z"/><path d="M23.36 27.96c-.05-.05-.13-.09-.22-.12-.09-.03-.22-.08-.38-.15-.16-.07-.35-.17-.59-.31-.23-.14-.5-.34-.8-.6.2-.2.38-.43.53-.69.16-.26.29-.55.39-.87.11-.32.19-.66.24-1.03.06-.37.08-.77.08-1.19 0-.82-.1-1.52-.29-2.12-.19-.6-.47-1.09-.85-1.48-.37-.39-.83-.68-1.37-.87-.54-.19-1.17-.28-1.87-.28-.75 0-1.41.11-1.97.34-.57.23-1.04.56-1.43.98-.38.43-.67.94-.87 1.55-.19.61-.29 1.3-.29 2.06 0 .84.09 1.57.27 2.18.18.61.46 1.11.82 1.51.36.39.82.68 1.37.87.55.19 1.19.28 1.92.28.39 0 .74-.04 1.06-.11.32-.08.59-.16.81-.27.27.31.56.58.87.81.31.24.62.44.92.6.3.16.58.29.84.38.26.09.47.13.63.13.04 0 .08-.01.11-.03.03-.02.07-.05.09-.11.03-.06.05-.14.07-.25.02-.11.03-.25.03-.42 0-.22-.01-.39-.04-.51S23.42 28.01 23.36 27.96zM20.49 24.39c-.08.4-.22.76-.41 1.06-.19.3-.45.54-.77.71-.32.18-.71.26-1.18.26s-.86-.08-1.17-.23c-.31-.15-.56-.38-.74-.67-.18-.29-.32-.64-.39-1.06-.08-.41-.12-.88-.12-1.4 0-.44.04-.85.12-1.25.08-.4.22-.74.41-1.04.19-.3.45-.53.77-.71.32-.18.71-.26 1.18-.26.47 0 .86.08 1.17.24.31.16.56.38.75.67.19.29.32.64.4 1.04.08.4.12.85.12 1.34C20.62 23.55 20.57 23.98 20.49 24.39zM46.78 30.98c-.03-.1-.07-.18-.11-.23-.04-.06-.12-.1-.22-.13-.1-.03-.24-.05-.42-.05-.18-.01-.42-.01-.73-.01-.26 0-.47 0-.63.01-.16.01-.28.03-.37.05-.09.03-.16.07-.2.12-.04.05-.08.12-.11.21l-3.08 8.86c-.06.18-.1.32-.12.43-.02.11 0 .19.05.25.05.06.14.1.28.11.13.02.32.02.56.02.22 0 .4-.01.54-.02.14-.01.24-.03.32-.06.07-.03.13-.07.16-.12.03-.05.06-.11.08-.18l.63-1.95 3.75 0 .67 2.01c.02.07.05.12.08.16s.08.07.16.1c.08.02.19.04.34.05.15.01.35.01.61.01.25 0 .45-.01.59-.02.14-.01.24-.05.3-.1.06-.05.08-.13.06-.24-.02-.11-.05-.25-.12-.44L46.78 30.98zM43.87 36.75l1.41-4.24h.01l1.41 4.24L43.87 36.75z"/></svg>